{"title":"Elysium 2013  NEW SOURCE READNFO CAM XViD UNiQUE","uid":8870816,"size":1476989267,"categoryP":"video","categoryS":"movies","magnet":"?xt=urn:btih:d2621e2fcf097b843e2c7947c277cdc61e0e9ace&amp;dn=Elysium+2013++NEW+SOURCE+READNFO+CAM+XViD+UNiQUE&amp;tr=udp%3A%2F%2Ftracker.openbittorrent.com%3A80&amp;tr=udp%3A%2F%2Fopen.demonii.com%3A1337&amp;tr=udp%3A%2F%2Ftracker.coppersurfer.tk%3A6969&amp;tr=udp%3A%2F%2Fexodus.desync.com%3A6969","seeders":10,"leechers":2,"uploader":"xxxlavalxxx","files":-1,"time":1378058150,"description":" &lt;a href=&quot;\nhttp://www.imdb.com/title/tt1535108/&quot; rel=&quot;nofollow&quot; target=&quot;_NEW&quot;&gt;\nhttp://www.imdb.com/title/tt1535108/&lt;/a&gt;\n\n\n\nSet in the year 2154, where the very wealthy live on a man-made space station while the rest of the population resides on a ruined Earth, a man takes on a mission that could bring equality to the polarized worlds. \n\n\n\nDirector:\n Neill Blomkamp \n\nWriter:\n Neill Blomkamp \n\nStars:\n Matt Damon, Jodie Foster, Sharlto Copley\n\nGenres:\n  Action |  Drama |  Sci-Fi |  Thriller \n\nCountry:\n USA \n\nLanguage:\n English \n\n\n\nFormat                                   : AVI\n Format/Info                              : Audio Video Interleave\n File size                                : 1.36 GiB\n Duration                                 : 1h 41mn\n Overall bit rate                         : 1 919 Kbps\n Writing application                      : VirtualDubMod 1.5.10.2 (build 2540/release)\n Writing library                          : VirtualDubMod build 2540/release\n\n Video\n ID                                       : 0\n Format                                   : MPEG-4 Visual\n Format profile                           : Advanced Simple@L5\n Format settings, BVOP                    : 2\n Format settings, QPel                    : No\n Format settings, GMC                     : No warppoints\n Format settings, Matrix                  : Default (H.263)\n Muxing mode                              : Packed bitstream\n Codec ID                                 : XVID\n Codec ID/Hint                            : XviD\n Duration                                 : 1h 41mn\n Bit rate                                 : 1 781 Kbps\n Width                                    : 640 pixels\n Height                                   : 338 pixels\n Display aspect ratio                     : 1.893\n Frame rate                               : 25.000 fps\n Color space                              : YUV\n Chroma subsampling                       : 4:2:0\n Bit depth                                : 8 bits\n Scan type                                : Progressive\n Compression mode                         : Lossy\n Bits/(Pixel*Frame)                       : 0.329\n Stream size                              : 1.27 GiB (93%)\n Writing library                          : XviD 64\n\n Audio\n ID                                       : 1\n Format                                   : MPEG Audio\n Format version                           : Version 1\n Format profile                           : Layer 3\n Mode                                     : Joint stereo\n Mode extension                           : MS Stereo\n Codec ID                                 : 55\n Codec ID/Hint                            : MP3\n Duration                                 : 1h 41mn\n Bit rate mode                            : Constant\n Bit rate                                 : 128 Kbps\n Channel(s)                               : 2 channels\n Sampling rate                            : 44.1 KHz\n Compression mode                         : Lossy\n Stream size                              : 92.9 MiB (7%)\n Alignment                                : Aligned on interleaves\n Interleave, duration                     : 40 ms (1.00 video frame)\n Interleave, preload duration             : 522 ms\n\nSource Used   ELYSIUM.TS.AC3MD.XviD-TROUBLEMAKER / ELYSIUM FULL CAM AUDIO ONLY ENGLISH-NOGRP - Thanks\n\n\n\n &lt;a href=&quot;\nhttp://bayimg.com/HApCNaAEf&quot; rel=&quot;nofollow&quot; target=&quot;_NEW&quot;&gt;\nhttp://bayimg.com/HApCNaAEf&lt;/a&gt; &lt;a href=&quot;\nhttp://bayimg.com/HaPcOAAef&quot; rel=&quot;nofollow&quot; target=&quot;_NEW&quot;&gt;\nhttp://bayimg.com/HaPcOAAef&lt;/a&gt;","torrent":{"xt":"urn:btih:d2621e2fcf097b843e2c7947c277cdc61e0e9ace","amp;dn":"Elysium+2013++NEW+SOURCE+READNFO+CAM+XViD+UNiQUE","amp;tr":["udp%3A%2F%2Ftracker.openbittorrent.com%3A80","udp%3A%2F%2Fopen.demonii.com%3A1337","udp%3A%2F%2Ftracker.coppersurfer.tk%3A6969","udp%3A%2F%2Fexodus.desync.com%3A6969"],"infoHash":"d2621e2fcf097b843e2c7947c277cdc61e0e9ace","infoHashBuffer":{"type":"Buffer","data":[210,98,30,47,207,9,123,132,62,44,121,71,194,119,205,198,30,14,154,206]},"announce":[],"urlList":[]}}